<svg xmlns="http://www.w3.org/2000/svg" xmlns:xlink="http://www.w3.org/1999/xlink" width="500" zoomAndPan="magnify" viewBox="0 0 375 374.999991" height="500" preserveAspectRatio="xMidYMid meet" version="1.0"><defs><clipPath id="62f6bdecc6"><path d="M 162 99.277344 L 210 99.277344 L 210 199 L 162 199 Z M 162 99.277344 " clip-rule="nonzero"/></clipPath><clipPath id="323372578e"><path d="M 116.71875 205 L 166 205 L 166 238 L 116.71875 238 Z M 116.71875 205 " clip-rule="nonzero"/></clipPath><clipPath id="d1a186024f"><path d="M 218 222 L 258.46875 222 L 258.46875 249.277344 L 218 249.277344 Z M 218 222 " clip-rule="nonzero"/></clipPath></defs><path fill="#ff0019" d="M 232.207031 178.695312 L 211.546875 164.109375 L 211.546875 161.945312 L 232.207031 176.53125 Z M 232.207031 183.75 L 211.546875 169.164062 L 211.546875 167.003906 L 232.207031 181.589844 Z M 232.207031 188.808594 L 211.546875 174.222656 L 211.546875 172.0625 L 232.207031 186.644531 Z M 232.207031 193.863281 L 211.546875 179.277344 L 211.546875 177.117188 L 232.207031 191.699219 Z M 232.207031 198.917969 L 211.546875 184.335938 L 211.546875 182.175781 L 232.207031 196.757812 Z M 232.207031 203.976562 L 211.546875 189.390625 L 211.546875 187.230469 L 232.207031 201.8125 Z M 232.207031 209.03125 L 211.546875 194.449219 L 211.546875 192.285156 L 232.207031 206.871094 Z M 211.546875 157.421875 L 207.085938 159.992188 L 207.085938 199.6875 L 209.113281 199.941406 L 210.132812 200.074219 L 210.875 200.78125 L 215.425781 205.132812 L 226.71875 213.109375 L 230.140625 212.628906 L 211.546875 199.503906 L 211.546875 197.34375 L 232.207031 211.925781 L 232.207031 212.339844 L 232.789062 212.261719 L 234.535156 212.015625 L 234.777344 212.316406 L 234.777344 173.820312 Z M 202.90625 162.402344 L 202.90625 178.859375 L 201.761719 178.859375 L 201.761719 163.058594 L 197.769531 165.363281 L 197.769531 191.09375 L 196.972656 191.09375 L 196.972656 165.820312 L 194.367188 167.320312 L 194.367188 194.171875 L 202.707031 194.171875 L 202.707031 199.136719 L 205.414062 199.476562 L 205.414062 160.957031 L 202.90625 162.402344 " fill-opacity="1" fill-rule="nonzero"/><path fill="#383535" d="M 192.082031 225.605469 L 192.308594 225.800781 L 192.308594 227.585938 L 192.082031 227.390625 L 191.261719 226.660156 L 191.261719 224.875 L 192.082031 225.605469 " fill-opacity="1" fill-rule="nonzero"/><g clip-path="url(#62f6bdecc6)"><path fill="#383535" d="M 208.082031 134.605469 L 203.074219 130.167969 L 203.074219 120.269531 L 208.082031 124.707031 Z M 208.082031 146.289062 L 203.074219 141.855469 L 203.074219 131.953125 L 208.082031 136.390625 Z M 202.171875 129.371094 L 198.917969 126.492188 L 197.164062 124.9375 L 197.164062 115.039062 L 198.917969 116.589844 L 202.171875 119.472656 Z M 202.171875 141.054688 L 198.917969 138.175781 L 197.164062 136.621094 L 197.164062 126.722656 L 198.917969 128.277344 L 202.171875 131.15625 Z M 202.171875 152.742188 L 198.917969 149.859375 L 197.164062 148.308594 L 197.164062 138.410156 L 198.917969 139.964844 L 202.171875 142.84375 Z M 196.265625 124.140625 L 195.503906 123.464844 L 192.082031 120.441406 L 191.257812 119.707031 L 191.257812 109.8125 L 192.082031 110.542969 L 195.503906 113.566406 L 196.265625 114.242188 Z M 196.265625 135.824219 L 195.503906 135.148438 L 192.082031 132.128906 L 191.257812 131.394531 L 191.257812 121.496094 L 192.082031 122.226562 L 195.503906 125.25 L 196.265625 125.925781 Z M 196.265625 147.511719 L 195.503906 146.835938 L 192.082031 143.8125 L 191.257812 143.078125 L 191.257812 133.179688 L 192.082031 133.914062 L 195.503906 136.9375 L 196.265625 137.613281 Z M 196.265625 159.195312 L 195.503906 158.519531 L 192.082031 155.5 L 191.257812 154.765625 L 191.257812 144.867188 L 192.082031 145.597656 L 195.503906 148.621094 L 196.265625 149.296875 Z M 190.355469 118.910156 L 188.664062 117.417969 L 185.683594 114.777344 L 185.34375 114.476562 L 185.34375 104.578125 L 185.683594 104.878906 L 188.664062 107.519531 L 190.355469 109.015625 Z M 190.355469 130.597656 L 188.664062 129.101562 L 185.683594 126.460938 L 185.34375 126.164062 L 185.34375 116.265625 L 185.683594 116.566406 L 188.664062 119.203125 L 190.355469 120.699219 Z M 190.355469 142.28125 L 188.664062 140.789062 L 185.683594 138.148438 L 185.34375 137.847656 L 185.34375 127.949219 L 185.683594 128.25 L 188.664062 130.890625 L 190.355469 132.386719 Z M 190.355469 153.96875 L 188.664062 152.46875 L 185.683594 149.832031 L 185.34375 149.53125 L 185.34375 139.632812 L 185.683594 139.933594 L 188.664062 142.574219 L 190.355469 144.066406 Z M 190.355469 165.652344 L 188.664062 164.15625 L 185.683594 161.515625 L 185.34375 161.21875 L 185.34375 151.316406 L 185.683594 151.617188 L 188.664062 154.257812 L 190.355469 155.753906 Z M 190.355469 177.335938 L 188.664062 175.839844 L 185.683594 173.203125 L 185.34375 172.898438 L 185.34375 163.003906 L 185.683594 163.300781 L 188.664062 165.941406 L 190.355469 167.4375 Z M 190.355469 189.019531 L 188.664062 187.523438 L 185.683594 184.886719 L 185.34375 184.585938 L 185.34375 174.6875 L 185.683594 174.988281 L 188.664062 177.628906 L 190.355469 179.121094 Z M 208.1875 121.625 L 202.125 116.257812 L 198.707031 113.234375 L 195.292969 110.210938 L 191.871094 107.1875 L 188.457031 104.160156 L 185.472656 101.519531 L 183.003906 99.335938 L 162.960938 113.8125 L 162.960938 136.15625 L 176.761719 141.769531 L 178.042969 142.289062 L 178.042969 196.921875 L 187.503906 198.183594 L 185.683594 196.570312 L 185.34375 196.269531 L 185.34375 186.375 L 185.683594 186.671875 L 188.664062 189.3125 L 190.355469 190.808594 L 190.355469 194.171875 L 191.257812 194.171875 L 191.257812 191.605469 L 191.261719 191.609375 L 191.261719 189.820312 L 191.257812 189.816406 L 191.257812 179.921875 L 191.261719 179.925781 L 191.261719 178.136719 L 191.257812 178.132812 L 191.257812 168.234375 L 191.261719 168.238281 L 191.261719 166.453125 L 191.257812 166.449219 L 191.257812 156.550781 L 192.082031 157.28125 L 195.503906 160.304688 L 196.265625 160.980469 L 196.265625 162.644531 L 197.164062 162.125 L 197.164062 161.777344 L 197.402344 161.988281 L 198.621094 161.285156 L 197.164062 159.992188 L 197.164062 150.09375 L 198.917969 151.648438 L 202.171875 154.527344 L 202.171875 159.238281 L 203.074219 158.71875 L 203.074219 155.324219 L 205.394531 157.378906 L 205.535156 157.300781 L 206.617188 156.675781 L 203.074219 153.539062 L 203.074219 143.640625 L 208.082031 148.078125 L 208.082031 155.832031 L 209.667969 154.917969 L 209.667969 122.9375 L 208.1875 121.625 " fill-opacity="1" fill-rule="nonzero"/></g><path fill="#ff0019" d="M 140.210938 151.183594 L 157.554688 141.492188 L 157.554688 145.4375 L 159.492188 144.0625 L 174.898438 150.328125 L 174.898438 144.761719 L 157.96875 137.878906 L 140.210938 151.183594 " fill-opacity="1" fill-rule="nonzero"/><path fill="#ff0019" d="M 140.210938 160.449219 L 157.554688 150.757812 L 157.554688 154.699219 L 159.492188 153.328125 L 174.898438 159.589844 L 174.898438 154.027344 L 157.96875 147.140625 L 140.210938 160.449219 " fill-opacity="1" fill-rule="nonzero"/><path fill="#ff0019" d="M 140.210938 169.710938 L 157.554688 160.019531 L 157.554688 163.964844 L 159.492188 162.589844 L 174.898438 168.855469 L 174.898438 163.292969 L 157.96875 156.40625 L 140.210938 169.710938 " fill-opacity="1" fill-rule="nonzero"/><path fill="#ff0019" d="M 140.210938 178.976562 L 157.554688 169.285156 L 157.554688 173.226562 L 159.492188 171.855469 L 174.898438 178.121094 L 174.898438 172.554688 L 157.96875 165.671875 L 140.210938 178.976562 " fill-opacity="1" fill-rule="nonzero"/><path fill="#ff0019" d="M 140.210938 188.242188 L 157.554688 178.546875 L 157.554688 182.492188 L 159.492188 181.117188 L 174.898438 187.382812 L 174.898438 181.820312 L 157.96875 174.933594 L 140.210938 188.242188 " fill-opacity="1" fill-rule="nonzero"/><path fill="#ff0019" d="M 140.210938 197.503906 L 144.550781 194.253906 L 143.34375 195.753906 Z M 140.210938 197.503906 " fill-opacity="1" fill-rule="nonzero"/><path fill="#ff0019" d="M 174.898438 191.082031 L 174.898438 196.648438 L 174.367188 196.429688 L 159.492188 190.382812 L 157.554688 191.757812 L 157.554688 187.8125 L 148.34375 192.960938 L 147.59375 192.859375 L 146.589844 192.722656 L 157.96875 184.199219 L 174.898438 191.082031 " fill-opacity="1" fill-rule="nonzero"/><path fill="#ff0019" d="M 160.828125 194.625 L 157.082031 194.125 L 157.96875 193.460938 Z M 160.828125 194.625 " fill-opacity="1" fill-rule="nonzero"/><g clip-path="url(#323372578e)"><path fill="#ff3347" d="M 165.496094 224.394531 C 165.179688 224.128906 153.09375 216.09375 147.179688 211.261719 L 116.714844 237.15625 L 144.917969 207.515625 L 147.179688 205.140625 L 151.015625 209.171875 L 165.496094 224.394531 " fill-opacity="1" fill-rule="nonzero"/></g><path fill="#5d0500" d="M 200.617188 213.332031 L 188.578125 213.332031 L 188.578125 217.5 L 183.804688 218.082031 L 182.773438 218.207031 L 182.027344 218.921875 L 173.148438 227.417969 L 147.179688 200.128906 L 125.5625 222.847656 L 147.179688 195.9375 L 190.246094 201.683594 L 190.246094 206.949219 L 192.511719 209.332031 L 192.511719 197.28125 L 199.597656 197.28125 L 199.597656 201.878906 L 208.726562 203.027344 L 220.210938 214.015625 L 200.617188 216.75 L 200.617188 213.332031 " fill-opacity="1" fill-rule="nonzero"/><path fill="#ff3347" d="M 141.25 226.578125 L 141.25 227.914062 L 146.148438 227.914062 L 146.148438 221.679688 C 143.441406 221.679688 141.25 223.871094 141.25 226.578125 " fill-opacity="1" fill-rule="nonzero"/><path fill="#ff3347" d="M 148.078125 221.679688 L 148.078125 227.914062 L 152.976562 227.914062 L 152.976562 226.578125 C 152.976562 223.871094 150.785156 221.679688 148.078125 221.679688 " fill-opacity="1" fill-rule="nonzero"/><path fill="#ff3347" d="M 141.25 234.734375 L 146.148438 234.734375 L 146.148438 229.835938 L 141.25 229.835938 L 141.25 234.734375 " fill-opacity="1" fill-rule="nonzero"/><path fill="#ff3347" d="M 148.078125 234.734375 L 152.976562 234.734375 L 152.976562 229.835938 L 148.078125 229.835938 L 148.078125 234.734375 " fill-opacity="1" fill-rule="nonzero"/><g clip-path="url(#d1a186024f)"><path fill="#5d0500" d="M 258.273438 249.234375 L 240.660156 234.269531 L 233.21875 227.941406 C 230.960938 229.785156 227.613281 232.191406 224.648438 234.269531 C 221.21875 236.667969 218.292969 238.621094 218.152344 238.738281 L 222.40625 234.269531 L 230.0625 226.222656 L 231.441406 224.769531 L 233.21875 222.90625 L 235.078125 224.859375 L 258.273438 249.234375 " fill-opacity="1" fill-rule="nonzero"/></g><path fill="#ff3347" d="M 250.996094 237.464844 L 233.21875 218.78125 L 229.390625 222.804688 L 218.484375 234.269531 L 206.5 246.859375 L 157.335938 246.859375 L 175.289062 229.671875 L 184.175781 221.167969 L 191.683594 220.253906 L 191.683594 216.441406 L 197.511719 216.441406 L 197.511719 226.351562 L 199.375 224.390625 L 199.375 220.0625 L 223.070312 216.753906 L 233.21875 215.335938 L 250.996094 237.464844 " fill-opacity="1" fill-rule="nonzero"/><path fill="#5d0500" d="M 238.097656 240.535156 L 238.097656 241.632812 L 234.066406 241.632812 L 234.066406 236.503906 C 236.292969 236.503906 238.097656 238.308594 238.097656 240.535156 " fill-opacity="1" fill-rule="nonzero"/><path fill="#5d0500" d="M 232.480469 236.503906 L 232.480469 241.632812 L 228.449219 241.632812 L 228.449219 240.535156 C 228.449219 238.308594 230.253906 236.503906 232.480469 236.503906 " fill-opacity="1" fill-rule="nonzero"/><path fill="#5d0500" d="M 238.097656 247.246094 L 234.066406 247.246094 L 234.066406 243.214844 L 238.097656 243.214844 L 238.097656 247.246094 " fill-opacity="1" fill-rule="nonzero"/><path fill="#5d0500" d="M 232.480469 247.246094 L 228.449219 247.246094 L 228.449219 243.214844 L 232.480469 243.214844 L 232.480469 247.246094 " fill-opacity="1" fill-rule="nonzero"/><path fill="#383535" d="M 174.367188 196.429688 L 174.898438 196.648438 L 174.898438 196.503906 Z M 174.367188 196.429688 " fill-opacity="1" fill-rule="nonzero"/></svg>